<svg xmlns="http://www.w3.org/2000/svg" viewBox="0 0 1600 920" width="1600" height="920" role="img">
  <rect width="100%" height="100%" fill="#f7f7f3"/>

  <title>EXPERIMENT</title>
  <g stroke-linecap="round" stroke-linejoin="round">
  <circle cx="112.00" cy="460.00" r="22" fill="none" stroke="#111" stroke-width="3.8" opacity="0.92"/>
  <circle cx="112.00" cy="460.00" r="13" fill="none" stroke="#111" stroke-width="2.4" opacity="0.72"/>
  <circle cx="112.00" cy="460.00" r="5.8" fill="#111" opacity="0.90"/>
  <path d="M 127.00 451.00 L 136.00 455.00 L 136.00 465.00 L 127.00 469.00 Z" fill="#111" opacity="0.88"/>
  <line x1="143.00" y1="460.00" x2="432.00" y2="460.00" stroke="#111" stroke-width="2.2" opacity="0.38" stroke-dasharray="8 14"/>
  <circle cx="158.00" cy="460.00" r="2.7" fill="#111" opacity="0.70"/>
  <circle cx="180.00" cy="460.00" r="2.2" fill="#111" opacity="0.62"/>
  <circle cx="202.00" cy="460.00" r="1.9" fill="#111" opacity="0.56"/>
  <path d="M 496.00 420.00 A 40.00 40.00 0 0 1 496.00 500.00" fill="none" stroke="#141414" stroke-width="2.60" opacity="0.340"/>
  <path d="M 496.00 373.92 A 86.08 86.08 0 0 1 496.00 546.08" fill="none" stroke="#141414" stroke-width="2.56" opacity="0.328"/>
  <path d="M 496.00 327.84 A 132.16 132.16 0 0 1 496.00 592.16" fill="none" stroke="#141414" stroke-width="2.52" opacity="0.316"/>
  <path d="M 496.00 281.76 A 178.24 178.24 0 0 1 496.00 638.24" fill="none" stroke="#141414" stroke-width="2.48" opacity="0.304"/>
  <path d="M 496.00 235.68 A 224.32 224.32 0 0 1 496.00 684.32" fill="none" stroke="#141414" stroke-width="2.44" opacity="0.292"/>
  <path d="M 496.00 189.60 A 270.40 270.40 0 0 1 496.00 730.40" fill="none" stroke="#141414" stroke-width="2.40" opacity="0.280"/>
  <path d="M 496.00 143.52 A 316.48 316.48 0 0 1 496.00 776.48" fill="none" stroke="#141414" stroke-width="2.36" opacity="0.268"/>
  <path d="M 831.00 300.00 A 40.00 40.00 0 0 1 831.00 380.00" fill="none" stroke="#141414" stroke-width="2.60" opacity="0.310"/>
  <path d="M 831.00 262.56 A 77.44 77.44 0 0 1 831.00 417.44" fill="none" stroke="#141414" stroke-width="2.56" opacity="0.298"/>
  <path d="M 831.00 225.12 A 114.88 114.88 0 0 1 831.00 454.88" fill="none" stroke="#141414" stroke-width="2.52" opacity="0.286"/>
  <path d="M 831.00 187.68 A 152.32 152.32 0 0 1 831.00 492.32" fill="none" stroke="#141414" stroke-width="2.48" opacity="0.274"/>
  <path d="M 831.00 150.24 A 189.76 189.76 0 0 1 831.00 529.76" fill="none" stroke="#141414" stroke-width="2.44" opacity="0.262"/>
  <path d="M 831.00 112.80 A 227.20 227.20 0 0 1 831.00 567.20" fill="none" stroke="#141414" stroke-width="2.40" opacity="0.250"/>
  <path d="M 831.00 75.36 A 264.64 264.64 0 0 1 831.00 604.64" fill="none" stroke="#141414" stroke-width="2.36" opacity="0.238"/>
  <path d="M 831.00 37.92 A 302.08 302.08 0 0 1 831.00 642.08" fill="none" stroke="#141414" stroke-width="2.32" opacity="0.226"/>
  <path d="M 831.00 0.48 A 339.52 339.52 0 0 1 831.00 679.52" fill="none" stroke="#141414" stroke-width="2.28" opacity="0.214"/>
  <path d="M 831.00 -36.96 A 376.96 376.96 0 0 1 831.00 716.96" fill="none" stroke="#141414" stroke-width="2.24" opacity="0.202"/>
  <path d="M 831.00 -74.40 A 414.40 414.40 0 0 1 831.00 754.40" fill="none" stroke="#141414" stroke-width="2.20" opacity="0.190"/>
  <path d="M 831.00 540.00 A 40.00 40.00 0 0 1 831.00 620.00" fill="none" stroke="#141414" stroke-width="2.60" opacity="0.310"/>
  <path d="M 831.00 502.56 A 77.44 77.44 0 0 1 831.00 657.44" fill="none" stroke="#141414" stroke-width="2.56" opacity="0.298"/>
  <path d="M 831.00 465.12 A 114.88 114.88 0 0 1 831.00 694.88" fill="none" stroke="#141414" stroke-width="2.52" opacity="0.286"/>
  <path d="M 831.00 427.68 A 152.32 152.32 0 0 1 831.00 732.32" fill="none" stroke="#141414" stroke-width="2.48" opacity="0.274"/>
  <path d="M 831.00 390.24 A 189.76 189.76 0 0 1 831.00 769.76" fill="none" stroke="#141414" stroke-width="2.44" opacity="0.262"/>
  <path d="M 831.00 352.80 A 227.20 227.20 0 0 1 831.00 807.20" fill="none" stroke="#141414" stroke-width="2.40" opacity="0.250"/>
  <path d="M 831.00 315.36 A 264.64 264.64 0 0 1 831.00 844.64" fill="none" stroke="#141414" stroke-width="2.36" opacity="0.238"/>
  <path d="M 831.00 277.92 A 302.08 302.08 0 0 1 831.00 882.08" fill="none" stroke="#141414" stroke-width="2.32" opacity="0.226"/>
  <path d="M 831.00 240.48 A 339.52 339.52 0 0 1 831.00 919.52" fill="none" stroke="#141414" stroke-width="2.28" opacity="0.214"/>
  <path d="M 831.00 203.04 A 376.96 376.96 0 0 1 831.00 956.96" fill="none" stroke="#141414" stroke-width="2.24" opacity="0.202"/>
  <path d="M 831.00 165.60 A 414.40 414.40 0 0 1 831.00 994.40" fill="none" stroke="#141414" stroke-width="2.20" opacity="0.190"/>
  <path d="M 879.00 340.00 C 705 292.38, 870 207.72, 1264.00 207.72" fill="none" stroke="#111" stroke-width="1.1" opacity="0.08"/>
  <path d="M 879.00 340.00 C 705 324.43, 870 296.76, 1264.00 296.76" fill="none" stroke="#111" stroke-width="1.1" opacity="0.08"/>
  <path d="M 879.00 340.00 C 705 356.49, 870 385.80, 1264.00 385.80" fill="none" stroke="#111" stroke-width="1.1" opacity="0.08"/>
  <path d="M 879.00 340.00 C 705 383.20, 870 460.00, 1264.00 460.00" fill="none" stroke="#111" stroke-width="1.1" opacity="0.13"/>
  <path d="M 879.00 340.00 C 705 409.91, 870 534.20, 1264.00 534.20" fill="none" stroke="#111" stroke-width="1.1" opacity="0.08"/>
  <path d="M 879.00 340.00 C 705 441.97, 870 623.24, 1264.00 623.24" fill="none" stroke="#111" stroke-width="1.1" opacity="0.08"/>
  <path d="M 879.00 340.00 C 705 474.02, 870 712.28, 1264.00 712.28" fill="none" stroke="#111" stroke-width="1.1" opacity="0.08"/>
  <path d="M 879.00 580.00 C 705 445.98, 870 207.72, 1264.00 207.72" fill="none" stroke="#111" stroke-width="1.1" opacity="0.08"/>
  <path d="M 879.00 580.00 C 705 478.03, 870 296.76, 1264.00 296.76" fill="none" stroke="#111" stroke-width="1.1" opacity="0.08"/>
  <path d="M 879.00 580.00 C 705 510.09, 870 385.80, 1264.00 385.80" fill="none" stroke="#111" stroke-width="1.1" opacity="0.08"/>
  <path d="M 879.00 580.00 C 705 536.80, 870 460.00, 1264.00 460.00" fill="none" stroke="#111" stroke-width="1.1" opacity="0.13"/>
  <path d="M 879.00 580.00 C 705 563.51, 870 534.20, 1264.00 534.20" fill="none" stroke="#111" stroke-width="1.1" opacity="0.08"/>
  <path d="M 879.00 580.00 C 705 595.57, 870 623.24, 1264.00 623.24" fill="none" stroke="#111" stroke-width="1.1" opacity="0.08"/>
  <path d="M 879.00 580.00 C 705 627.62, 870 712.28, 1264.00 712.28" fill="none" stroke="#111" stroke-width="1.1" opacity="0.08"/>
  </g>
</svg>